<svg width="20" height="18" viewBox="0 0 20 18" fill="none" xmlns="http://www.w3.org/2000/svg">
<path d="M0.968083 8.99036C0.656027 8.72769 0.5 8.39339 0.5 7.98745C0.5 7.58151 0.656027 7.24721 0.968083 6.98454L8.79784 0.393999C8.96805 0.250726 9.15245 0.149481 9.35103 0.0902613C9.54961 0.0300869 9.76238 0 9.98933 0C10.2163 0 10.429 0.0300869 10.6276 0.0902613C10.8262 0.149481 11.0106 0.250726 11.1808 0.393999L19.0106 6.98454C19.3226 7.24721 19.4855 7.5753 19.4991 7.96882C19.5138 8.3633 19.351 8.70381 19.0106 8.99036C18.6985 9.25302 18.3014 9.38436 17.8191 9.38436C17.3368 9.38436 16.9397 9.25302 16.6276 8.99036L9.98933 3.43854L3.35105 8.99036C3.039 9.25302 2.64864 9.39056 2.17999 9.40298C1.71248 9.41444 1.30851 9.2769 0.968083 8.99036ZM0.968083 17.5867C0.656027 17.324 0.5 16.9897 0.5 16.5838C0.5 16.1779 0.656027 15.8436 0.968083 15.5809L8.79784 8.99036C8.96805 8.84708 9.15245 8.74536 9.35103 8.68519C9.54961 8.62597 9.76238 8.59636 9.98933 8.59636C10.2163 8.59636 10.429 8.62597 10.6276 8.68519C10.8262 8.74536 11.0106 8.84708 11.1808 8.99036L19.0106 15.5809C19.3226 15.8436 19.4855 16.1717 19.4991 16.5652C19.5138 16.9597 19.351 17.3002 19.0106 17.5867C18.6985 17.8494 18.3014 17.9807 17.8191 17.9807C17.3368 17.9807 16.9397 17.8494 16.6276 17.5867L9.98933 12.0349L3.35105 17.5867C3.039 17.8494 2.64864 17.9869 2.17999 17.9993C1.71248 18.0108 1.30851 17.8733 0.968083 17.5867Z" fill="white"/>
</svg>
